<svg width="24" height="20" viewBox="0 0 24 20" fill="none" xmlns="http://www.w3.org/2000/svg">
<path d="M23.5747 11.0122L14.9362 19.581C14.6658 19.8493 14.2989 20 13.9164 20C13.5339 20 13.1671 19.8493 12.8966 19.581C12.6261 19.3127 12.4742 18.9488 12.4742 18.5694C12.4742 18.19 12.6261 17.8261 12.8966 17.5578L19.0767 11.4299H1.43975C1.05791 11.4299 0.691699 11.2795 0.421694 11.0116C0.151688 10.7438 0 10.3805 0 10.0018C0 9.62302 0.151688 9.25977 0.421694 8.99194C0.691699 8.72411 1.05791 8.57365 1.43975 8.57365H19.0767L12.899 2.4422C12.6285 2.17391 12.4766 1.81003 12.4766 1.43061C12.4766 1.05119 12.6285 0.687307 12.899 0.419016C13.1694 0.150724 13.5363 3.99785e-09 13.9188 0C14.3013 -3.99785e-09 14.6681 0.150724 14.9386 0.419016L23.5771 8.98781C23.7114 9.12067 23.8178 9.27852 23.8904 9.45231C23.963 9.62609 24.0002 9.81239 24 10.0005C23.9998 10.1886 23.9621 10.3748 23.8891 10.5484C23.8161 10.722 23.7093 10.8796 23.5747 11.0122Z" fill="#333333"/>
</svg>
