<svg width="40" height="80" viewBox="0 0 40 80" fill="none" xmlns="http://www.w3.org/2000/svg">
<path d="M39.8906 19.011H39.4507V6.96917C39.4507 6.05392 39.2704 5.14763 38.9201 4.30206C38.5699 3.45648 38.0565 2.68818 37.4092 2.04102C36.762 1.39387 35.9937 0.880536 35.1481 0.530335C34.3025 0.180135 33.3962 -7.37428e-05 32.4809 2.26369e-08H6.96917C5.12083 2.26369e-08 3.3482 0.73425 2.04122 2.04122C0.734249 3.3482 0 5.12083 0 6.96917V73.0312C8.93782e-05 74.8794 0.734379 76.652 2.04134 77.9589C3.34831 79.2658 5.12089 80 6.96917 80H32.4809C33.3962 80.0001 34.3024 79.8199 35.148 79.4697C35.9936 79.1195 36.7619 78.6062 37.4091 77.9591C38.0563 77.312 38.5697 76.5437 38.92 75.6982C39.2703 74.8526 39.4506 73.9464 39.4507 73.0312V27.5824H39.8905L39.8906 19.011Z" fill="#090814"/>
<path d="M32.764 1.8125H29.4338C29.587 2.18796 29.6455 2.59532 29.6041 2.9987C29.5628 3.40208 29.4228 3.78909 29.1967 4.12565C28.9705 4.46221 28.665 4.73798 28.3072 4.92866C27.9493 5.11935 27.55 5.2191 27.1445 5.21912H12.5282C12.1227 5.21912 11.7234 5.11938 11.3656 4.9287C11.0077 4.73802 10.7022 4.46226 10.476 4.1257C10.2498 3.78913 10.1099 3.40211 10.0685 2.99872C10.0272 2.59534 10.0856 2.18796 10.2388 1.8125H7.12852C5.74815 1.8125 4.42432 2.36085 3.44825 3.33692C2.47218 4.31299 1.92383 5.63682 1.92383 7.01719V72.9816C1.92383 74.3619 2.47218 75.6858 3.44825 76.6618C4.42432 77.6379 5.74815 78.1863 7.12852 78.1863H32.763C34.1433 78.1863 35.4672 77.6379 36.4432 76.6618C37.4193 75.6858 37.9677 74.3619 37.9677 72.9816V7.01719C37.9677 5.63702 37.4195 4.31335 36.4436 3.33732C35.4678 2.36128 34.1443 1.8128 32.7641 1.8125H32.764Z" fill="white"/>
<path d="M33.568 37.2998C34.9366 37.2998 36.0462 36.1904 36.0462 34.8218C36.0462 33.4532 34.9366 32.3438 33.568 32.3438C32.1994 32.3438 31.0898 33.4532 31.0898 34.8218C31.0898 36.1904 32.1994 37.2998 33.568 37.2998Z" fill="#6C63FF"/>
<path d="M33.1224 35.8426C33.1171 35.8426 33.1118 35.8426 33.1065 35.8426C33.0598 35.8404 33.0142 35.8281 32.9728 35.8065C32.9313 35.785 32.895 35.7547 32.8663 35.7178L32.4521 35.1854C32.426 35.1518 32.4067 35.1133 32.3954 35.0723C32.3841 35.0312 32.381 34.9883 32.3863 34.946C32.3916 34.9038 32.4051 34.863 32.4262 34.826C32.4472 34.7889 32.4754 34.7564 32.509 34.7303L32.5239 34.719C32.5575 34.6929 32.596 34.6736 32.637 34.6623C32.6781 34.651 32.721 34.6479 32.7632 34.6532C32.8055 34.6585 32.8463 34.672 32.8833 34.6931C32.9204 34.7141 32.9529 34.7423 32.979 34.7759C32.9999 34.8028 33.0263 34.8249 33.0565 34.8407C33.0868 34.8564 33.12 34.8654 33.1541 34.8671C33.1881 34.8687 33.2221 34.863 33.2537 34.8503C33.2853 34.8375 33.3138 34.8181 33.3371 34.7933L34.178 33.9058C34.2372 33.8435 34.3187 33.8071 34.4046 33.8048C34.4906 33.8025 34.5739 33.8343 34.6364 33.8934L34.6502 33.9065C34.6812 33.9358 34.706 33.9709 34.7233 34.0098C34.7407 34.0486 34.7502 34.0906 34.7514 34.1331C34.7525 34.1757 34.7453 34.2181 34.73 34.2578C34.7148 34.2976 34.6919 34.3339 34.6626 34.3648L33.3577 35.7422C33.3274 35.7742 33.2909 35.7996 33.2505 35.817C33.2101 35.8344 33.1665 35.8433 33.1225 35.8433L33.1224 35.8426Z" fill="white"/>
<path d="M7.58398 35.7258L7.79945 35.1753L8.91237 35.0078L9.0319 36.2264L7.90695 36.2504L7.58398 35.7258Z" fill="#9F616A"/>
<path d="M8.43964 35.4965C9.01036 35.4965 9.47303 35.0338 9.47303 34.4631C9.47303 33.8924 9.01036 33.4297 8.43964 33.4297C7.86891 33.4297 7.40625 33.8924 7.40625 34.4631C7.40625 35.0338 7.86891 35.4965 8.43964 35.4965Z" fill="#9F616A"/>
<path d="M9.48408 34.6558C9.47071 34.7095 9.44353 34.8374 9.40118 34.8381C9.36658 34.8381 9.33377 34.2836 9.36748 34.1918C9.40713 34.0863 9.30288 33.953 9.22425 33.8845C9.08293 33.7609 8.76939 34.0258 8.45058 33.9059C8.44215 33.9028 8.44384 33.9031 8.34307 33.8629C8.23211 33.8107 8.11712 33.7676 7.99921 33.7339C7.91404 33.7356 7.83095 33.7606 7.75896 33.8061C7.68697 33.8517 7.62883 33.9161 7.59086 33.9923C7.51301 34.1481 7.57806 34.2817 7.50492 34.6586C7.49639 34.7025 7.48246 34.7651 7.4619 34.7661C7.42337 34.7678 7.38574 34.5621 7.37596 34.5077C7.31478 34.2826 7.31478 34.0451 7.37596 33.82C7.38484 33.7934 7.43932 33.6944 7.54784 33.4976C7.70432 33.2142 7.78296 33.0718 7.80621 33.0462C7.96933 32.8628 8.26623 32.6955 8.5154 32.7668C8.64133 32.8029 8.61875 32.8609 8.77377 32.9172C9.04911 33.0178 9.28839 32.8948 9.33254 32.9817C9.3559 33.0278 9.29052 33.0658 9.28951 33.1537C9.28794 33.3046 9.4788 33.3483 9.59035 33.4976C9.65034 33.5779 9.75313 33.5787 9.48419 34.6558H9.48408Z" fill="#2F2E41"/>
<path d="M10.7648 36.63C10.7232 36.6768 10.68 36.7226 10.6352 36.7674C10.0801 37.3223 9.33968 37.6526 8.55596 37.695C7.77224 37.7374 7.00048 37.4888 6.38883 36.997L6.38793 36.9961C6.31304 36.9358 6.2407 36.8717 6.1709 36.8039C6.17225 36.7933 6.17367 36.7829 6.17517 36.7726C6.18494 36.7032 6.19584 36.637 6.20808 36.5762C6.30806 36.0769 7.62286 35.5528 7.65723 35.5391H7.6579C7.71808 35.726 7.83844 35.8878 8.00022 35.9992C8.162 36.1106 8.35609 36.1653 8.55222 36.1548C9.0465 36.1494 8.95034 35.5391 8.95034 35.5391L8.96753 35.5427C9.1102 35.573 10.1006 35.7905 10.4913 36.0874C10.6103 36.1778 10.6958 36.3706 10.7572 36.6003C10.7596 36.61 10.7619 36.62 10.7648 36.63Z" fill="#E6E6E6"/>
<path d="M10.6344 32.2683C10.1892 31.8231 9.62201 31.5199 9.00452 31.3971C8.38703 31.2743 7.74698 31.3373 7.16532 31.5782C6.58366 31.8192 6.0865 32.2272 5.73671 32.7507C5.38693 33.2741 5.20022 33.8896 5.20021 34.5192C5.19789 35.2875 5.47566 36.0303 5.98151 36.6086C6.02974 36.6641 6.08007 36.718 6.1325 36.7704C6.14485 36.7828 6.15732 36.795 6.16979 36.807C6.23967 36.8744 6.31201 36.9385 6.38683 36.9992L6.38784 37C6.99949 37.4919 7.77125 37.7404 8.55496 37.6981C9.33868 37.6557 10.0791 37.3253 10.6342 36.7704C10.6791 36.7255 10.7223 36.6797 10.7638 36.633C11.3027 36.0261 11.5895 35.2363 11.5654 34.425C11.5414 33.6137 11.2083 32.8422 10.6344 32.2683ZM10.7562 36.6029C10.4817 36.9151 10.1488 37.1704 9.77615 37.3546C9.6901 37.397 9.60195 37.4356 9.51171 37.4703C9.08804 37.6329 8.63423 37.702 8.18136 37.6729C7.72848 37.6438 7.28725 37.5172 6.88785 37.3018C6.86883 37.2915 6.85011 37.2811 6.83168 37.2704C6.59227 37.1347 6.37145 36.9686 6.17473 36.7761C6.1101 36.7129 6.04832 36.6469 5.98938 36.5783C5.59397 36.1189 5.33908 35.5553 5.25513 34.955C5.17118 34.3547 5.26171 33.7428 5.51591 33.1925C5.77012 32.6422 6.17728 32.1767 6.6888 31.8514C7.20033 31.5262 7.79463 31.3549 8.4008 31.3581C9.00698 31.3613 9.59943 31.5389 10.1075 31.8695C10.6155 32.2002 11.0177 32.6701 11.2661 33.223C11.5144 33.776 11.5985 34.3887 11.5082 34.9881C11.4179 35.5876 11.157 36.1483 10.7567 36.6036L10.7562 36.6029Z" fill="#3F3D56"/>
<path d="M22.586 34.215H12.9483C12.8649 34.215 12.7849 34.1819 12.7259 34.1229C12.6669 34.0639 12.6338 33.9839 12.6338 33.9005C12.6338 33.8171 12.6669 33.7371 12.7259 33.6781C12.7849 33.6191 12.8649 33.5859 12.9483 33.5859H22.5858C22.6693 33.5859 22.7493 33.6191 22.8083 33.6781C22.8672 33.7371 22.9004 33.8171 22.9004 33.9005C22.9004 33.9839 22.8672 34.0639 22.8083 34.1229C22.7493 34.1819 22.6694 34.215 22.586 34.215Z" fill="#6C63FF"/>
<path d="M17.126 35.4572H12.9483C12.8649 35.4572 12.7849 35.4241 12.7259 35.3651C12.6669 35.3061 12.6338 35.2261 12.6338 35.1427C12.6338 35.0592 12.6669 34.9792 12.7259 34.9203C12.7849 34.8613 12.8649 34.8281 12.9483 34.8281H17.126C17.2095 34.8281 17.2895 34.8613 17.3485 34.9203C17.4074 34.9792 17.4406 35.0592 17.4406 35.1427C17.4406 35.2261 17.4074 35.3061 17.3485 35.3651C17.2895 35.4241 17.2095 35.4572 17.126 35.4572Z" fill="#6C63FF"/>
<path d="M9.7371 45.5681H8.14551V43.4141L9.52175 44.168L9.7371 45.5681Z" fill="#2F2E41"/>
<path d="M7.84591 45.3415L7.79918 44.8697L8.73157 44.6953L9.28203 46.0356L8.32469 47.1365L7.64258 45.7962L7.84591 45.3415Z" fill="#ED9DA0"/>
<path d="M8.43964 45.184C9.01036 45.184 9.47303 44.7213 9.47303 44.1506C9.47303 43.5799 9.01036 43.1172 8.43964 43.1172C7.86891 43.1172 7.40625 43.5799 7.40625 44.1506C7.40625 44.7213 7.86891 45.184 8.43964 45.184Z" fill="#ED9DA0"/>
<path d="M10.6696 46.4261C10.6583 46.4382 10.6461 46.4501 10.6343 46.462C10.5968 46.4995 10.5585 46.536 10.5193 46.5715C9.95749 47.0798 9.23293 47.3711 8.4757 47.3931C7.71848 47.4151 6.9782 47.1665 6.38784 46.6917L6.38683 46.691C6.36975 46.6773 6.35313 46.6632 6.33594 46.6489C6.33897 46.6403 6.34212 46.6319 6.34537 46.6234C6.48294 46.2668 6.75451 45.978 7.10208 45.8189C7.16029 45.7909 7.2208 45.768 7.28294 45.7505L7.53806 45.2909L7.7178 45.626L7.85013 45.8731L8.39317 46.8864L8.86173 45.7199L9.00687 45.3583L9.04405 45.2656L9.22109 45.4034L9.38859 45.5337L9.7256 45.6081L9.99925 45.6686L10.371 45.7507C10.5213 45.8731 10.6127 46.106 10.6638 46.3954C10.6657 46.4053 10.6675 46.4157 10.6696 46.4261Z" fill="#E6E6E6"/>
<path d="M7.89604 42.9825C7.95926 42.8762 8.04684 42.7866 8.15155 42.7208C8.25626 42.6551 8.37509 42.6153 8.49825 42.6045C8.6214 42.5938 8.74535 42.6125 8.85985 42.6591C8.97436 42.7057 9.07614 42.7788 9.1568 42.8725C9.25251 42.9836 9.3152 43.1196 9.40855 43.2329C9.6093 43.4763 9.95148 43.6188 10.0392 43.9218C10.068 44.0569 10.068 44.1966 10.0392 44.3316L9.98945 44.6821C9.96874 44.7721 9.97176 44.8658 9.99821 44.9542C10.0382 45.0543 10.1339 45.1198 10.1958 45.208C10.247 45.2844 10.2727 45.375 10.2695 45.467C10.2663 45.5589 10.2342 45.6475 10.1778 45.7201C10.1277 45.7819 10.0612 45.8284 10.0088 45.8886C9.9802 45.9164 9.95892 45.9508 9.94679 45.9888C9.93467 46.0268 9.93207 46.0671 9.93923 46.1063C9.98136 46.2524 10.211 46.2878 10.2361 46.4381C10.2395 46.477 10.2308 46.516 10.2112 46.5498C10.1916 46.5835 10.162 46.6104 10.1265 46.6267C10.0546 46.6578 9.97507 46.6671 9.89789 46.6534C9.75028 46.6355 9.60903 46.5828 9.48576 46.4996C9.3625 46.4164 9.26075 46.3052 9.18887 46.175C9.117 46.0448 9.07706 45.8994 9.07235 45.7508C9.06763 45.6022 9.09827 45.4546 9.16175 45.3201C9.26554 45.1003 9.45832 44.9059 9.45629 44.6628C9.44481 44.5304 9.40332 44.4023 9.33497 44.2883L8.97021 43.5615C8.95566 43.4977 8.92779 43.4377 8.88843 43.3855C8.84907 43.3333 8.7991 43.2899 8.74182 43.2584C8.68453 43.2268 8.62122 43.2077 8.55603 43.2024C8.49085 43.197 8.42527 43.2055 8.36359 43.2273C8.25422 43.2549 8.13942 43.2522 8.03141 43.2197C7.97836 43.2014 7.93467 43.1629 7.9098 43.1126C7.88493 43.0623 7.88087 43.0042 7.89851 42.9509" fill="#2F2E41"/>
<path d="M8.07767 42.9928C7.9751 42.9685 7.86767 42.9745 7.76847 43.0102C7.66926 43.0458 7.58256 43.1095 7.51891 43.1935C7.39452 43.3637 7.30506 43.5568 7.2557 43.7617L7.14842 44.1066L7.04732 44.431C6.99631 44.5548 6.98007 44.6902 7.00036 44.8225C7.03922 44.9105 7.06783 45.0026 7.08562 45.0971C7.07442 45.1976 7.03377 45.2926 6.96879 45.3701C6.93661 45.4087 6.91282 45.4537 6.89891 45.502C6.88501 45.5504 6.8813 45.6011 6.88802 45.6509C6.92801 45.7986 7.13337 45.8797 7.12213 46.0329C7.11842 46.0837 7.08843 46.1309 7.08944 46.1819C7.09228 46.2144 7.10421 46.2454 7.12386 46.2714C7.14351 46.2974 7.17009 46.3174 7.20054 46.329C7.26184 46.3512 7.32717 46.3602 7.39219 46.3552C7.59162 46.3516 7.79019 46.328 7.98488 46.2846C8.06081 46.2719 8.1334 46.2441 8.19832 46.2027C8.23058 46.1817 8.25685 46.1527 8.27457 46.1185C8.29229 46.0843 8.30085 46.0462 8.29943 46.0077C8.28684 45.8888 8.159 45.8214 8.09452 45.7209C8.04627 45.6139 8.01612 45.4996 8.00533 45.3828C7.9541 45.2295 7.88685 45.082 7.80469 44.9429C7.67777 44.6663 7.63151 44.3595 7.67126 44.0578C7.71101 43.7561 7.83514 43.4718 8.02937 43.2376C8.06774 43.1999 8.09755 43.1544 8.11677 43.1042C8.12554 43.0788 8.12484 43.0511 8.11478 43.0262C8.10472 43.0013 8.086 42.9809 8.06206 42.9688" fill="#2F2E41"/>
<path d="M10.6334 41.9636C10.1882 41.5184 9.62103 41.2152 9.00354 41.0924C8.38605 40.9696 7.74601 41.0326 7.16434 41.2736C6.58268 41.5145 6.08552 41.9225 5.73574 42.446C5.38595 42.9695 5.19925 43.5849 5.19923 44.2145C5.19691 44.9828 5.47468 45.7256 5.98054 46.304C6.02877 46.3594 6.0791 46.4133 6.13152 46.4657C6.14388 46.4781 6.15635 46.4903 6.16881 46.5023C6.20229 46.5348 6.2364 46.5664 6.27115 46.5973C6.2922 46.6161 6.31351 46.6345 6.33507 46.6525C6.35192 46.6668 6.36878 46.6807 6.38596 46.6946L6.38697 46.6953C6.97734 47.17 7.71761 47.4187 8.47484 47.3967C9.23207 47.3747 9.95663 47.0834 10.5184 46.5751C10.5576 46.5397 10.5959 46.5032 10.6334 46.4656C10.6452 46.4538 10.6571 46.4418 10.6687 46.4297C10.701 46.3964 10.7324 46.3627 10.763 46.3286C11.3019 45.7216 11.5887 44.9317 11.5646 44.1204C11.5405 43.309 11.2074 42.5375 10.6334 41.9636ZM10.7552 46.2982C10.7253 46.3319 10.6947 46.3656 10.6633 46.3984C10.6145 46.4493 10.564 46.4985 10.512 46.5462C10.4922 46.5644 10.4722 46.5821 10.452 46.5996C10.2467 46.7783 10.0192 46.9296 9.77517 47.05C9.68912 47.0925 9.60098 47.131 9.51073 47.1657C9.08706 47.3283 8.63325 47.3974 8.18038 47.3683C7.72751 47.3392 7.28627 47.2126 6.88687 46.9972C6.86785 46.9869 6.84913 46.9765 6.83071 46.9658C6.73206 46.91 6.6365 46.8488 6.54447 46.7826C6.47587 46.7334 6.4094 46.6816 6.34507 46.627C6.3226 46.6081 6.30014 46.5887 6.27846 46.569C6.24281 46.5373 6.20791 46.5047 6.17376 46.4711C6.10913 46.4078 6.04734 46.3419 5.9884 46.2733C5.59299 45.8138 5.3381 45.2503 5.25415 44.65C5.1702 44.0496 5.26073 43.4378 5.51494 42.8875C5.76915 42.3372 6.1763 41.8717 6.68783 41.5464C7.19935 41.2211 7.79365 41.0499 8.39983 41.0531C9.006 41.0563 9.59845 41.2338 10.1065 41.5645C10.6145 41.8952 11.0167 42.365 11.2651 42.918C11.5135 43.471 11.5975 44.0837 11.5072 44.6831C11.4169 45.2825 11.156 45.8433 10.7558 46.2986L10.7552 46.2982Z" fill="#3F3D56"/>
<path d="M22.586 43.9103H12.9483C12.8649 43.9103 12.7849 43.8772 12.7259 43.8182C12.6669 43.7592 12.6338 43.6792 12.6338 43.5958C12.6338 43.5124 12.6669 43.4324 12.7259 43.3734C12.7849 43.3144 12.8649 43.2812 12.9483 43.2812H22.5858C22.6693 43.2812 22.7493 43.3144 22.8083 43.3734C22.8672 43.4324 22.9004 43.5124 22.9004 43.5958C22.9004 43.6792 22.8672 43.7592 22.8083 43.8182C22.7493 43.8772 22.6694 43.9103 22.586 43.9103Z" fill="#6C63FF"/>
<path d="M17.126 45.1525H12.9483C12.8649 45.1525 12.7849 45.1194 12.7259 45.0604C12.6669 45.0014 12.6338 44.9214 12.6338 44.838C12.6338 44.7546 12.6669 44.6746 12.7259 44.6156C12.7849 44.5566 12.8649 44.5234 12.9483 44.5234H17.126C17.2095 44.5234 17.2895 44.5566 17.3485 44.6156C17.4074 44.6746 17.4406 44.7546 17.4406 44.838C17.4406 44.9214 17.4074 45.0014 17.3485 45.0604C17.2895 45.1194 17.2095 45.1525 17.126 45.1525Z" fill="#6C63FF"/>
<path d="M33.568 46.6905C34.9366 46.6905 36.0462 45.581 36.0462 44.2124C36.0462 42.8438 34.9366 41.7344 33.568 41.7344C32.1994 41.7344 31.0898 42.8438 31.0898 44.2124C31.0898 45.581 32.1994 46.6905 33.568 46.6905Z" fill="#6C63FF"/>
<path d="M33.1224 45.2333C33.1171 45.2333 33.1118 45.2333 33.1065 45.2333C33.0598 45.231 33.0142 45.2187 32.9728 45.1972C32.9313 45.1756 32.895 45.1454 32.8663 45.1085L32.4521 44.576C32.426 44.5424 32.4067 44.5039 32.3954 44.4629C32.3841 44.4218 32.381 44.3789 32.3863 44.3367C32.3916 44.2944 32.4051 44.2536 32.4262 44.2166C32.4472 44.1796 32.4754 44.147 32.509 44.1209L32.5239 44.1097C32.5575 44.0835 32.596 44.0642 32.637 44.0529C32.6781 44.0416 32.721 44.0385 32.7632 44.0438C32.8055 44.0491 32.8463 44.0626 32.8833 44.0837C32.9204 44.1047 32.9529 44.1329 32.979 44.1665C32.9999 44.1935 33.0263 44.2156 33.0565 44.2313C33.0868 44.247 33.12 44.256 33.1541 44.2577C33.1881 44.2594 33.2221 44.2536 33.2537 44.2409C33.2853 44.2281 33.3138 44.2087 33.3371 44.1839L34.178 43.2965C34.2372 43.2341 34.3187 43.1978 34.4046 43.1954C34.4906 43.1931 34.5739 43.2249 34.6364 43.284L34.6502 43.2971C34.6812 43.3264 34.706 43.3615 34.7233 43.4004C34.7407 43.4393 34.7502 43.4812 34.7514 43.5238C34.7525 43.5663 34.7453 43.6087 34.73 43.6484C34.7148 43.6882 34.6919 43.7246 34.6626 43.7555L33.3577 45.1328C33.3274 45.1648 33.2909 45.1903 33.2505 45.2076C33.2101 45.225 33.1665 45.234 33.1225 45.2339L33.1224 45.2333Z" fill="white"/>
<path d="M9.06893 25.8415L9.11566 25.3697L8.18327 25.1953L7.63281 26.5356L8.59015 27.6365L9.27226 26.2962L9.06893 25.8415Z" fill="#ED9DA0"/>
<path d="M8.47577 25.6918C9.0465 25.6918 9.50916 25.2291 9.50916 24.6584C9.50916 24.0877 9.0465 23.625 8.47577 23.625C7.90505 23.625 7.44238 24.0877 7.44238 24.6584C7.44238 25.2291 7.90505 25.6918 8.47577 25.6918Z" fill="#ED9DA0"/>
<path d="M9.13133 25.608L8.92755 25.654C8.92755 25.654 9.08774 25.1459 9.03337 25.0975C8.979 25.0491 8.84576 25.1255 8.84576 25.1255L8.70568 25.2827L8.53515 25.1091C8.53515 25.1091 8.34991 24.8788 8.27745 24.8141C8.20499 24.7494 8.32137 24.5093 8.32137 24.5093C8.32137 24.5093 7.24563 24.2192 7.64589 23.6974C7.64589 23.6974 7.88056 23.2883 7.95707 23.4217C8.03357 23.555 8.12467 23.343 8.12467 23.343L8.40293 23.3959C8.40293 23.3959 8.95215 23.0721 9.47339 23.7648C9.99464 24.4576 9.13133 25.608 9.13133 25.608Z" fill="#090814"/>
<path d="M6.53223 27.1914C7.07356 27.6283 7.74301 27.876 8.43835 27.8967C9.13368 27.9174 9.81668 27.71 10.383 27.306C10.3821 27.296 10.3811 27.286 10.3802 27.2761C10.366 27.1206 10.3533 26.9694 10.345 26.8439C10.3125 26.3569 9.17664 26.0324 9.17664 26.0324C9.17664 26.0324 9.17148 26.0375 9.16125 26.0465C8.94223 26.2221 8.67676 26.3299 8.39736 26.3569C7.99935 26.4067 7.86825 26.1705 7.82871 26.0575C7.82199 26.0388 7.81681 26.0196 7.81321 26L6.6449 26.5518C6.56862 26.6607 6.53886 26.8952 6.53256 27.1584C6.53256 27.1697 6.53234 27.1804 6.53223 27.1914Z" fill="#6C63FF"/>
<path d="M10.6334 22.4636C10.1882 22.0184 9.62103 21.7152 9.00354 21.5924C8.38605 21.4696 7.74601 21.5326 7.16434 21.7736C6.58268 22.0145 6.08552 22.4225 5.73574 22.946C5.38595 23.4695 5.19925 24.0849 5.19923 24.7145C5.19691 25.4828 5.47468 26.2256 5.98054 26.804C6.02877 26.8594 6.0791 26.9133 6.13152 26.9657C6.14388 26.9781 6.15635 26.9903 6.16881 27.0023C6.20229 27.0348 6.2364 27.0664 6.27115 27.0973C6.2922 27.1161 6.31351 27.1345 6.33507 27.1525C6.35192 27.1668 6.36878 27.1807 6.38596 27.1946L6.38697 27.1953C6.43445 27.2336 6.48283 27.2705 6.53211 27.3059C7.09845 27.7098 7.78144 27.9173 8.47678 27.8966C9.17211 27.876 9.84157 27.6283 10.3829 27.1914C10.429 27.154 10.4741 27.1152 10.5184 27.0752C10.5576 27.0398 10.5959 27.0033 10.6334 26.9657C10.6452 26.9539 10.6571 26.9419 10.6687 26.9298C10.701 26.8965 10.7324 26.8628 10.763 26.8287C11.302 26.2217 11.5887 25.4318 11.5647 24.6204C11.5406 23.809 11.2075 23.0375 10.6334 22.4636ZM10.7552 26.7982C10.7253 26.8319 10.6947 26.8656 10.6633 26.8984C10.6145 26.9493 10.564 26.9985 10.512 27.0462C10.4922 27.0644 10.4722 27.0821 10.452 27.0996C10.429 27.1196 10.4058 27.1392 10.3822 27.1585C10.1957 27.3118 9.99216 27.4432 9.77562 27.55C9.68957 27.5924 9.60143 27.631 9.51118 27.6657C9.08751 27.8283 8.6337 27.8974 8.18083 27.8683C7.72796 27.8392 7.28672 27.7126 6.88732 27.4972C6.8683 27.4869 6.84958 27.4765 6.83115 27.4658C6.7325 27.41 6.63695 27.3488 6.54492 27.2826L6.53582 27.276C6.47052 27.2288 6.40708 27.1792 6.34552 27.127C6.32305 27.1081 6.30059 27.0887 6.27891 27.069C6.24326 27.0373 6.20836 27.0047 6.17421 26.9711C6.10958 26.9078 6.04779 26.8419 5.98885 26.7733C5.59344 26.3138 5.33855 25.7503 5.2546 25.15C5.17065 24.5496 5.26118 23.9378 5.51539 23.3875C5.7696 22.8372 6.17675 22.3717 6.68828 22.0464C7.1998 21.7211 7.7941 21.5499 8.40028 21.5531C9.00645 21.5563 9.5989 21.7338 10.1069 22.0645C10.615 22.3952 11.0172 22.865 11.2656 23.418C11.5139 23.971 11.5979 24.5837 11.5076 25.1831C11.4173 25.7825 11.1565 26.3433 10.7562 26.7986L10.7552 26.7982Z" fill="#3F3D56"/>
<path d="M22.586 24.1056H12.9483C12.8649 24.1056 12.7849 24.0725 12.7259 24.0135C12.6669 23.9545 12.6338 23.8745 12.6338 23.7911C12.6338 23.7077 12.6669 23.6277 12.7259 23.5687C12.7849 23.5097 12.8649 23.4766 12.9483 23.4766H22.5858C22.6693 23.4766 22.7493 23.5097 22.8083 23.5687C22.8672 23.6277 22.9004 23.7077 22.9004 23.7911C22.9004 23.8745 22.8672 23.9545 22.8083 24.0135C22.7493 24.0725 22.6694 24.1056 22.586 24.1056Z" fill="#6C63FF"/>
<path d="M17.126 25.3478H12.9483C12.8649 25.3478 12.7849 25.3147 12.7259 25.2557C12.6669 25.1967 12.6338 25.1167 12.6338 25.0333C12.6338 24.9499 12.6669 24.8699 12.7259 24.8109C12.7849 24.7519 12.8649 24.7188 12.9483 24.7188H17.126C17.2095 24.7188 17.2895 24.7519 17.3485 24.8109C17.4074 24.8699 17.4406 24.9499 17.4406 25.0333C17.4406 25.1167 17.4074 25.1967 17.3485 25.2557C17.2895 25.3147 17.2095 25.3478 17.126 25.3478Z" fill="#6C63FF"/>
<path d="M33.568 27.1905C34.9366 27.1905 36.0462 26.081 36.0462 24.7124C36.0462 23.3438 34.9366 22.2344 33.568 22.2344C32.1994 22.2344 31.0898 23.3438 31.0898 24.7124C31.0898 26.081 32.1994 27.1905 33.568 27.1905Z" fill="#6C63FF"/>
<path d="M33.1224 25.7333C33.1171 25.7333 33.1118 25.7333 33.1065 25.7333C33.0598 25.731 33.0142 25.7187 32.9728 25.6972C32.9313 25.6756 32.895 25.6454 32.8663 25.6085L32.4521 25.076C32.426 25.0424 32.4067 25.0039 32.3954 24.9629C32.3841 24.9218 32.381 24.8789 32.3863 24.8367C32.3916 24.7944 32.4051 24.7536 32.4262 24.7166C32.4472 24.6796 32.4754 24.647 32.509 24.6209L32.5239 24.6097C32.5575 24.5835 32.596 24.5642 32.637 24.5529C32.6781 24.5416 32.721 24.5385 32.7632 24.5438C32.8055 24.5491 32.8463 24.5626 32.8833 24.5837C32.9204 24.6047 32.9529 24.6329 32.979 24.6665C32.9999 24.6935 33.0263 24.7156 33.0565 24.7313C33.0868 24.747 33.12 24.756 33.1541 24.7577C33.1881 24.7594 33.2221 24.7536 33.2537 24.7409C33.2853 24.7281 33.3138 24.7087 33.3371 24.6839L34.178 23.7965C34.2372 23.7341 34.3187 23.6978 34.4046 23.6954C34.4906 23.6931 34.5739 23.7249 34.6364 23.784L34.6502 23.7971C34.6812 23.8264 34.706 23.8615 34.7233 23.9004C34.7407 23.9393 34.7502 23.9812 34.7514 24.0238C34.7525 24.0663 34.7453 24.1087 34.73 24.1484C34.7148 24.1882 34.6919 24.2246 34.6626 24.2555L33.3577 25.6328C33.3274 25.6648 33.2909 25.6903 33.2505 25.7076C33.2101 25.725 33.1665 25.734 33.1225 25.7339L33.1224 25.7333Z" fill="white"/>
<path d="M8.75469 16.3792L8.90623 15.4323L7.88396 15.0156L7.73242 16.4549L8.75469 16.3792Z" fill="#ED9DA0"/>
<path d="M9.78224 17.7781C9.69446 17.821 9.60512 17.8595 9.5142 17.8938C9.33213 17.9627 9.14411 18.0147 8.95251 18.0491C8.50629 18.1293 8.04818 18.115 7.60784 18.0071C7.50966 17.983 7.41069 17.9536 7.31329 17.9192L7.28251 17.908C7.16159 17.8641 7.04346 17.813 6.92876 17.7548C6.91337 17.7471 6.89798 17.7391 6.88259 17.7308C6.8672 17.7225 6.84889 17.713 6.83159 17.7034C6.8098 17.6915 6.78823 17.6792 6.76666 17.6666C6.69442 17.6248 6.62332 17.5796 6.55546 17.5327L6.55097 17.5296C6.54693 17.5268 6.54299 17.5241 6.53906 17.5213C6.54153 17.5081 6.54389 17.496 6.54614 17.4854C6.55445 17.4434 6.56007 17.4203 6.56007 17.4203L7.01796 16.4745L7.14557 16.2109L7.20781 16.1853L7.67771 15.9922H8.82636L9.18876 16.142C9.18876 16.142 9.19056 16.1489 9.19426 16.1622C9.34803 16.7035 9.53978 17.2332 9.76808 17.7476C9.77258 17.7576 9.77729 17.7678 9.78201 17.778L9.78224 17.7781Z" fill="#D6D6E3"/>
<path d="M8.49595 15.7341C9.07189 15.7341 9.53878 15.2672 9.53878 14.6913C9.53878 14.1153 9.07189 13.6484 8.49595 13.6484C7.92001 13.6484 7.45312 14.1153 7.45312 14.6913C7.45312 15.2672 7.92001 15.7341 8.49595 15.7341Z" fill="#ED9DA0"/>
<path d="M7.21008 16.1797L7.20828 16.1887L6.89037 17.7004L6.88767 17.7135L6.88329 17.7343C6.86621 17.7256 6.84959 17.7163 6.83229 17.7069C6.81049 17.6949 6.78892 17.6826 6.76736 17.6701C6.69524 17.6283 6.62413 17.5831 6.55616 17.5362L6.55167 17.533L6.53987 17.5247C6.48797 17.4885 6.43731 17.4507 6.38788 17.4116L6.38687 17.4108C6.29803 17.3391 6.2131 17.2627 6.13243 17.182C6.08 17.1295 6.02968 17.0756 5.98145 17.0202L5.98875 16.9895L5.98942 16.9864L5.99852 16.9474C6.03807 16.7802 6.12513 16.628 6.2492 16.5091C6.37328 16.3903 6.52907 16.3099 6.69782 16.2775L7.15593 16.1898L7.21008 16.1797Z" fill="#D6D6E3"/>
<path d="M10.4571 17.3392C10.3218 17.4544 10.1773 17.5582 10.0248 17.6494C10.01 17.6584 9.9947 17.6673 9.97988 17.6762C9.91502 17.7136 9.84908 17.7486 9.78205 17.7812C9.69428 17.824 9.60494 17.8626 9.51402 17.8969L9.50694 17.8638L9.14746 16.1562L9.19397 16.1651L9.65994 16.2544C9.82869 16.2868 9.98448 16.3672 10.1085 16.4861C10.2326 16.605 10.3196 16.7572 10.3591 16.9244L10.4483 17.3019L10.4572 17.3389L10.4571 17.3392Z" fill="#D6D6E3"/>
<path d="M9.69661 14.972C9.66954 15.0731 9.53327 15.5244 9.18413 15.6194C9.11561 15.6382 8.95204 15.6597 8.99529 15.6194L9.02427 15.5923C9.40308 15.2361 9.55765 15.0184 9.48699 14.535C9.44206 14.2273 8.93171 13.9478 8.64446 13.9201C8.57551 13.914 8.50606 13.9229 8.44087 13.9462C8.37568 13.9694 8.3163 14.0065 8.26679 14.0549C8.09828 14.2288 8.12614 14.7626 8.03279 15.0763C8.01586 15.1495 7.97878 15.2165 7.92573 15.2697C7.89562 15.2954 7.87641 15.2627 7.86215 15.209C7.83193 15.095 7.82406 14.8861 7.78104 14.9452C7.65679 15.1163 7.7752 15.3431 7.81092 15.4305C7.81822 15.4483 7.82575 15.4656 7.83339 15.482C7.83777 15.4914 7.84226 15.5008 7.84664 15.5097C7.96606 15.7532 8.10951 15.8403 8.23601 15.992C8.29222 16.0588 8.33887 16.1331 8.37463 16.2128C8.40221 16.2735 8.42356 16.3369 8.43832 16.402C8.48403 16.6261 8.47134 16.8582 8.40148 17.076C8.35284 17.2368 8.26914 17.5133 8.0238 17.6693C7.71577 17.8654 7.43459 17.6926 7.30012 17.8787C7.29844 17.8809 7.29698 17.8831 7.29541 17.8853C7.29053 17.8925 7.28606 17.9 7.28204 17.9077C7.16112 17.8639 7.04298 17.8127 6.92829 17.7545C6.9129 17.7469 6.89751 17.7389 6.88212 17.7306C6.86673 17.7223 6.84842 17.7127 6.83112 17.7032C6.83044 17.6901 6.82977 17.6771 6.82932 17.6638C6.81769 17.4212 6.83832 17.1781 6.89066 16.9408C6.92325 16.7828 6.96557 16.6269 7.01737 16.4741C7.05295 16.3736 7.09896 16.2771 7.15465 16.1863C7.20276 16.1084 7.25894 16.0358 7.32225 15.9697C7.46829 15.817 7.59838 15.7533 7.61894 15.592C7.64837 15.3619 7.40875 15.2926 7.32225 14.9446C7.26317 14.7067 7.20149 14.3636 7.26137 14.1325C7.29901 13.9149 7.39184 13.7105 7.53098 13.5389C7.7316 13.3338 7.98877 13.193 8.26971 13.1345C8.44259 13.1113 8.59683 13.3327 8.80589 13.3803C9.04618 13.435 9.18391 13.4662 9.31837 13.5692C9.54563 13.7427 9.60966 14.0023 9.66909 14.2432C9.74364 14.4791 9.75296 14.7307 9.69605 14.9715L9.69661 14.972Z" fill="#2F2E41"/>
<path d="M10.633 12.6744C10.1878 12.2293 9.62067 11.9261 9.00324 11.8033C8.38581 11.6805 7.74583 11.7436 7.16422 11.9845C6.58262 12.2254 6.0855 12.6333 5.73574 13.1567C5.38598 13.6802 5.19927 14.2955 5.19923 14.9251C5.19689 15.6934 5.47466 16.4362 5.98054 17.0145C6.02877 17.07 6.0791 17.1239 6.13152 17.1763C6.21219 17.2571 6.29713 17.3334 6.38596 17.4051L6.38697 17.4059C6.85476 17.7823 7.41944 18.0187 8.01584 18.0878C8.61223 18.1569 9.21602 18.056 9.7575 17.7967C10.299 17.5373 10.7561 17.1301 11.076 16.6221C11.396 16.1141 11.5657 15.5259 11.5657 14.9255C11.5668 14.5073 11.485 14.0929 11.3249 13.7065C11.1648 13.3201 10.9296 12.9693 10.633 12.6744ZM10.4517 17.3099C10.2464 17.4885 10.0189 17.6398 9.77484 17.7601C9.68879 17.8026 9.60064 17.8412 9.5104 17.8758C9.08675 18.0384 8.63299 18.1075 8.18016 18.0784C7.72732 18.0493 7.28613 17.9228 6.88676 17.7073C6.86774 17.6971 6.84902 17.6866 6.83059 17.676C6.73194 17.6201 6.63639 17.559 6.54436 17.4928C6.01029 17.1108 5.60849 16.5719 5.39484 15.951C5.18118 15.3301 5.16627 14.6581 5.35219 14.0283C5.5381 13.3986 5.91561 12.8424 6.43221 12.4371C6.94882 12.0318 7.57887 11.7976 8.23477 11.7669C8.89067 11.7362 9.53983 11.9107 10.092 12.266C10.6442 12.6213 11.072 13.1398 11.3158 13.7494C11.5597 14.3591 11.6076 15.0295 11.4528 15.6677C11.2981 16.3058 10.9483 16.8798 10.4522 17.31L10.4517 17.3099Z" fill="#3F3D56"/>
<path d="M22.586 14.6135H12.9483C12.8649 14.6135 12.7849 14.5803 12.7259 14.5213C12.6669 14.4623 12.6338 14.3823 12.6338 14.2989C12.6338 14.2155 12.6669 14.1355 12.7259 14.0765C12.7849 14.0175 12.8649 13.9844 12.9483 13.9844H22.5858C22.6693 13.9844 22.7493 14.0175 22.8083 14.0765C22.8672 14.1355 22.9004 14.2155 22.9004 14.2989C22.9004 14.3823 22.8672 14.4623 22.8083 14.5213C22.7493 14.5803 22.6694 14.6135 22.586 14.6135Z" fill="#6C63FF"/>
<path d="M17.126 15.8556H12.9483C12.8649 15.8556 12.7849 15.8225 12.7259 15.7635C12.6669 15.7045 12.6338 15.6245 12.6338 15.5411C12.6338 15.4577 12.6669 15.3777 12.7259 15.3187C12.7849 15.2597 12.8649 15.2266 12.9483 15.2266H17.126C17.2095 15.2266 17.2895 15.2597 17.3485 15.3187C17.4074 15.3777 17.4406 15.4577 17.4406 15.5411C17.4406 15.6245 17.4074 15.7045 17.3485 15.7635C17.2895 15.8225 17.2095 15.8556 17.126 15.8556Z" fill="#6C63FF"/>
<path d="M33.568 17.3702C34.9366 17.3702 36.0462 16.2607 36.0462 14.8921C36.0462 13.5235 34.9366 12.4141 33.568 12.4141C32.1994 12.4141 31.0898 13.5235 31.0898 14.8921C31.0898 16.2607 32.1994 17.3702 33.568 17.3702Z" fill="#6C63FF"/>
<path d="M33.1224 15.913C33.1171 15.913 33.1118 15.913 33.1065 15.913C33.0598 15.9107 33.0142 15.8984 32.9728 15.8768C32.9313 15.8553 32.895 15.825 32.8663 15.7881L32.4521 15.2557C32.426 15.2221 32.4067 15.1836 32.3954 15.1426C32.3841 15.1015 32.381 15.0586 32.3863 15.0164C32.3916 14.9741 32.4051 14.9333 32.4262 14.8963C32.4472 14.8592 32.4754 14.8267 32.509 14.8006L32.5239 14.7894C32.5575 14.7632 32.596 14.7439 32.637 14.7326C32.6781 14.7213 32.721 14.7182 32.7632 14.7235C32.8055 14.7288 32.8463 14.7423 32.8833 14.7634C32.9204 14.7844 32.9529 14.8126 32.979 14.8462C32.9999 14.8731 33.0263 14.8952 33.0565 14.911C33.0868 14.9267 33.12 14.9357 33.1541 14.9374C33.1881 14.939 33.2221 14.9333 33.2537 14.9206C33.2853 14.9078 33.3138 14.8884 33.3371 14.8636L34.178 13.9762C34.2372 13.9138 34.3187 13.8775 34.4046 13.8751C34.4906 13.8728 34.5739 13.9046 34.6364 13.9637L34.6502 13.9768C34.6812 14.0061 34.706 14.0412 34.7233 14.0801C34.7407 14.119 34.7502 14.1609 34.7514 14.2034C34.7525 14.246 34.7453 14.2884 34.73 14.3281C34.7148 14.3679 34.6919 14.4043 34.6626 14.4352L33.3577 15.8125C33.3274 15.8445 33.2909 15.8699 33.2505 15.8873C33.2101 15.9047 33.1665 15.9137 33.1225 15.9136L33.1224 15.913Z" fill="white"/>
<path d="M34.3453 63.5312H6.14479C5.64845 63.5312 5.24609 63.9336 5.24609 64.4299V70.832C5.24609 71.3284 5.64845 71.7307 6.14479 71.7307H34.3453C34.8417 71.7307 35.244 71.3284 35.244 70.832V64.4299C35.244 63.9336 34.8417 63.5312 34.3453 63.5312Z" fill="#6C63FF"/>
<path d="M33.568 56.6983C34.9366 56.6983 36.0462 55.5888 36.0462 54.2202C36.0462 52.8516 34.9366 51.7422 33.568 51.7422C32.1994 51.7422 31.0898 52.8516 31.0898 54.2202C31.0898 55.5888 32.1994 56.6983 33.568 56.6983Z" fill="#6C63FF"/>
<path d="M33.1224 55.2411C33.1171 55.2411 33.1118 55.2411 33.1065 55.2411C33.0598 55.2388 33.0142 55.2265 32.9728 55.205C32.9313 55.1834 32.895 55.1532 32.8663 55.1163L32.4521 54.5838C32.426 54.5502 32.4067 54.5118 32.3954 54.4707C32.3841 54.4296 32.381 54.3867 32.3863 54.3445C32.3916 54.3022 32.4051 54.2614 32.4262 54.2244C32.4472 54.1874 32.4754 54.1549 32.509 54.1287L32.5239 54.1175C32.5575 54.0913 32.596 54.072 32.637 54.0607C32.6781 54.0494 32.721 54.0463 32.7632 54.0516C32.8055 54.0569 32.8463 54.0705 32.8833 54.0915C32.9204 54.1126 32.9529 54.1407 32.979 54.1743C32.9999 54.2013 33.0263 54.2234 33.0565 54.2391C33.0868 54.2548 33.12 54.2639 33.1541 54.2655C33.1881 54.2672 33.2221 54.2614 33.2537 54.2487C33.2853 54.236 33.3138 54.2165 33.3371 54.1917L34.178 53.3043C34.2372 53.2419 34.3187 53.2056 34.4046 53.2032C34.4906 53.2009 34.5739 53.2328 34.6364 53.2918L34.6502 53.305C34.6812 53.3342 34.706 53.3693 34.7233 53.4082C34.7407 53.4471 34.7502 53.489 34.7514 53.5316C34.7525 53.5741 34.7453 53.6165 34.73 53.6562C34.7148 53.696 34.6919 53.7324 34.6626 53.7633L33.3577 55.1406C33.3274 55.1726 33.2909 55.1981 33.2505 55.2154C33.2101 55.2328 33.1665 55.2418 33.1225 55.2418L33.1224 55.2411Z" fill="white"/>
<path d="M9.18034 55.1242L8.96487 54.5737L7.85195 54.4062L7.73242 55.6249L8.85737 55.6488L9.18034 55.1242Z" fill="#ED9DA0"/>
<path d="M8.32441 54.8949C8.89513 54.8949 9.35779 54.4322 9.35779 53.8615C9.35779 53.2908 8.89513 52.8281 8.32441 52.8281C7.75368 52.8281 7.29102 53.2908 7.29102 53.8615C7.29102 54.4322 7.75368 54.8949 8.32441 54.8949Z" fill="#ED9DA0"/>
<path d="M7.28115 54.0464C7.29451 54.1001 7.3217 54.2281 7.36405 54.2287C7.39865 54.2287 7.43145 53.6742 7.39775 53.5824C7.3581 53.477 7.46235 53.3436 7.54098 53.2751C7.68219 53.1515 7.99584 53.4164 8.31465 53.2966C8.32307 53.2934 8.32139 53.2937 8.42215 53.2535C8.53311 53.2013 8.64811 53.1582 8.76602 53.1246C8.85119 53.1262 8.93428 53.1512 9.00627 53.1967C9.07826 53.2423 9.13639 53.3067 9.17436 53.3829C9.25221 53.5388 9.18717 53.6723 9.2603 54.0492C9.26884 54.0931 9.28277 54.1557 9.30333 54.1567C9.34186 54.1584 9.37949 53.9527 9.38926 53.8983C9.45044 53.6732 9.45044 53.4358 9.38926 53.2106C9.38039 53.184 9.32591 53.085 9.21728 52.8882C9.06079 52.6048 8.98216 52.4624 8.9589 52.4368C8.79579 52.2534 8.49888 52.0861 8.24972 52.1575C8.12379 52.1935 8.14637 52.2515 7.99134 52.3079C7.716 52.4084 7.47672 52.2854 7.43258 52.3724C7.40921 52.4184 7.47459 52.4563 7.4756 52.5443C7.47717 52.6952 7.28631 52.7389 7.17476 52.8882C7.11477 52.9685 7.01199 52.9693 7.28092 54.0464H7.28115Z" fill="#2F2E41"/>
<path d="M6.00195 56.0283C6.04359 56.0751 6.08681 56.1209 6.13159 56.1657C6.68664 56.7206 7.42709 57.051 8.21081 57.0933C8.99453 57.1357 9.76628 56.8871 10.3779 56.3953L10.3788 56.3945C10.4537 56.3342 10.5261 56.2702 10.5959 56.2023C10.5945 56.1917 10.5931 56.1813 10.5916 56.1711C10.5818 56.1017 10.5709 56.0355 10.5587 55.9746C10.4587 55.4754 9.14391 54.9512 9.10954 54.9375H9.10886C9.04869 55.1245 8.92833 55.2863 8.76655 55.3976C8.60477 55.509 8.41068 55.5637 8.21455 55.5532C7.72026 55.5478 7.81642 54.9375 7.81642 54.9375L7.79923 54.9411C7.65657 54.9714 6.6662 55.1889 6.27549 55.4858C6.15642 55.5763 6.07093 55.769 6.00959 55.9988C6.00712 56.0083 6.00454 56.0183 6.00195 56.0283Z" fill="#6C63FF"/>
<path d="M6.1316 51.6667C6.57679 51.2215 7.144 50.9184 7.76149 50.7955C8.37898 50.6727 9.01902 50.7358 9.60069 50.9767C10.1824 51.2176 10.6795 51.6256 11.0293 52.1491C11.3791 52.6726 11.5658 53.288 11.5658 53.9176C11.5681 54.6859 11.2904 55.4288 10.7845 56.0071C10.7363 56.0625 10.6859 56.1164 10.6335 56.1688C10.6212 56.1812 10.6087 56.1934 10.5962 56.2055C10.5263 56.2729 10.454 56.3369 10.3792 56.3977L10.3782 56.3985C9.76646 56.8903 8.99464 57.1389 8.21086 57.0964C7.42709 57.054 6.68662 56.7235 6.1316 56.1685C6.08667 56.1236 6.04345 56.0778 6.00196 56.0311C5.46317 55.4242 5.17653 54.6344 5.20062 53.8232C5.22472 53.012 5.55774 52.2406 6.1316 51.6667ZM6.00972 56.0014C6.28415 56.3135 6.6171 56.5689 6.98975 56.753C7.0758 56.7955 7.16394 56.834 7.25419 56.8687C7.67792 57.0312 8.13176 57.1002 8.58463 57.071C9.0375 57.0417 9.47871 56.915 9.87805 56.6994C9.89707 56.6892 9.91579 56.6787 9.93421 56.6681C10.1737 56.5324 10.3946 56.3663 10.5914 56.1739C10.656 56.1106 10.7178 56.0447 10.7767 55.9761C11.1722 55.5166 11.427 54.9531 11.511 54.3528C11.5949 53.7524 11.5044 53.1406 11.2502 52.5903C10.996 52.04 10.5888 51.5744 10.0773 51.2492C9.56579 50.9239 8.97149 50.7527 8.36532 50.7559C7.75914 50.7591 7.16669 50.9366 6.65864 51.2673C6.1506 51.598 5.7484 52.0678 5.50004 52.6208C5.25168 53.1738 5.16765 53.7865 5.25796 54.3859C5.34827 54.9853 5.60912 55.5461 6.00938 56.0014H6.00972Z" fill="#3F3D56"/>
<path d="M22.586 53.6135H12.9483C12.8649 53.6135 12.7849 53.5803 12.7259 53.5213C12.6669 53.4623 12.6338 53.3823 12.6338 53.2989C12.6338 53.2155 12.6669 53.1355 12.7259 53.0765C12.7849 53.0175 12.8649 52.9844 12.9483 52.9844H22.5858C22.6693 52.9844 22.7493 53.0175 22.8083 53.0765C22.8672 53.1355 22.9004 53.2155 22.9004 53.2989C22.9004 53.3823 22.8672 53.4623 22.8083 53.5213C22.7493 53.5803 22.6694 53.6135 22.586 53.6135Z" fill="#6C63FF"/>
<path d="M17.126 54.8556H12.9483C12.8649 54.8556 12.7849 54.8225 12.7259 54.7635C12.6669 54.7045 12.6338 54.6245 12.6338 54.5411C12.6338 54.4577 12.6669 54.3777 12.7259 54.3187C12.7849 54.2597 12.8649 54.2266 12.9483 54.2266H17.126C17.2095 54.2266 17.2895 54.2597 17.3485 54.3187C17.4074 54.3777 17.4406 54.4577 17.4406 54.5411C17.4406 54.6245 17.4074 54.7045 17.3485 54.7635C17.2895 54.8225 17.2095 54.8556 17.126 54.8556Z" fill="#6C63FF"/>
</svg>
