<svg width="64" height="64" viewBox="0 0 64 64" fill="none" xmlns="http://www.w3.org/2000/svg">
<circle cx="32" cy="32" r="31.5" stroke="#1A1A1A"/>
<path d="M36.2619 27.7337C36.3275 27.7993 36.3796 27.8771 36.4151 27.9628C36.4506 28.0485 36.4689 28.1403 36.4689 28.2331C36.4689 28.3259 36.4506 28.4177 36.4151 28.5034C36.3796 28.5891 36.3275 28.6669 36.2619 28.7325L28.7323 36.2611C28.5996 36.3918 28.4207 36.4647 28.2344 36.4641C28.0482 36.4634 27.8698 36.3892 27.738 36.2577C27.6063 36.1261 27.5319 35.9478 27.531 35.7616C27.5301 35.5754 27.6029 35.3964 27.7334 35.2636L35.263 27.7349C35.3285 27.6692 35.4063 27.6171 35.4919 27.5814C35.5776 27.5458 35.6694 27.5274 35.7622 27.5273C35.855 27.5272 35.9468 27.5454 36.0326 27.5808C36.1183 27.6162 36.1962 27.6682 36.2619 27.7337ZM42.1385 21.8579C40.9459 20.6682 39.3301 20 37.6454 20C35.9608 20 34.3449 20.6682 33.1524 21.8579L29.6146 25.3928C29.4822 25.5252 29.4078 25.7049 29.4078 25.8922C29.4078 26.0795 29.4822 26.2591 29.6146 26.3915C29.7471 26.524 29.9267 26.5984 30.1141 26.5984C30.3014 26.5984 30.481 26.524 30.6135 26.3915L34.1512 22.8554C35.0781 21.9287 36.3352 21.408 37.646 21.408C38.9568 21.408 40.2139 21.9287 41.1408 22.8554C42.0677 23.7822 42.5884 25.0391 42.5884 26.3498C42.5884 27.6604 42.0677 28.9174 41.1408 29.8441L37.6019 33.3814C37.5363 33.447 37.4843 33.5248 37.4488 33.6105C37.4133 33.6962 37.395 33.788 37.395 33.8808C37.395 33.9735 37.4133 34.0653 37.4488 34.151C37.4843 34.2367 37.5363 34.3145 37.6019 34.3801C37.6675 34.4457 37.7453 34.4977 37.831 34.5332C37.9167 34.5687 38.0086 34.587 38.1013 34.587C38.1941 34.587 38.2859 34.5687 38.3716 34.5332C38.4573 34.4977 38.5352 34.4457 38.6007 34.3801L42.1385 30.8428C42.7286 30.2529 43.1968 29.5526 43.5162 28.7817C43.8356 28.0109 44 27.1847 44 26.3504C44 25.516 43.8356 24.6898 43.5162 23.919C43.1968 23.1481 42.7286 22.4478 42.1385 21.8579ZM33.3806 37.6021L29.8429 41.1406C28.916 42.0674 27.6589 42.588 26.3481 42.588C25.0373 42.588 23.7802 42.0674 22.8533 41.1406C21.9264 40.2138 21.4057 38.9569 21.4057 37.6463C21.4057 36.3356 21.9264 35.0787 22.8533 34.1519L26.3898 30.6146C26.5223 30.4822 26.5967 30.3026 26.5967 30.1153C26.5967 29.928 26.5223 29.7483 26.3898 29.6159C26.2574 29.4835 26.0777 29.4091 25.8904 29.4091C25.7031 29.4091 25.5235 29.4835 25.391 29.6159L21.8615 33.1532C20.6697 34.3447 20.0001 35.9607 20 37.6458C19.9999 39.331 20.6693 40.9471 21.8609 42.1387C23.0525 43.3304 24.6688 43.9999 26.3541 44C28.0395 44.0001 29.6558 43.3308 30.8476 42.1393L34.3853 38.6009C34.4509 38.5353 34.503 38.4574 34.5385 38.3718C34.5739 38.2861 34.5922 38.1942 34.5922 38.1015C34.5922 38.0088 34.5739 37.9169 34.5385 37.8313C34.503 37.7456 34.4509 37.6677 34.3853 37.6021C34.3198 37.5366 34.2419 37.4845 34.1562 37.4491C34.0705 37.4136 33.9787 37.3953 33.8859 37.3953C33.7932 37.3953 33.7013 37.4136 33.6156 37.4491C33.5299 37.4845 33.4521 37.5366 33.3865 37.6021H33.3806Z" fill="#1A1A1A"/>
</svg>
