<svg width="64" height="64" viewBox="0 0 64 64" fill="none" xmlns="http://www.w3.org/2000/svg">
<circle cx="32" cy="32" r="31.5" stroke="#1A1A1A"/>
<path d="M18.7822 44C17.9895 44 17.3275 43.7357 16.7965 43.2071C16.2655 42.6786 16 42.0197 16 41.2306V22.7694C16 21.9803 16.2655 21.3214 16.7965 20.7929C17.3275 20.2643 17.9895 20 18.7822 20H44.2178C45.0105 20 45.6725 20.2643 46.2035 20.7929C46.7345 21.3214 47 21.9803 47 22.7694V41.2306C47 42.0197 46.7345 42.6786 46.2035 43.2071C45.6725 43.7357 45.0105 44 44.2178 44H18.7822ZM31.5 32.198L17.7222 23.2306V41.2306C17.7222 41.5383 17.8215 41.7911 18.0202 41.9891C18.2191 42.1869 18.4731 42.2857 18.7822 42.2857H44.2178C44.5269 42.2857 44.7809 42.1869 44.9798 41.9891C45.1785 41.7911 45.2778 41.5383 45.2778 41.2306V23.2306L31.5 32.198ZM31.5 30.2857L44.7478 21.7143H18.2522L31.5 30.2857ZM17.7222 23.2306V21.7143V41.2306C17.7222 41.5383 17.8215 41.7911 18.0202 41.9891C18.2191 42.1869 18.4731 42.2857 18.7822 42.2857H17.7222V23.2306Z" fill="#1A1A1A"/>
</svg>
