<svg width="29" height="24" viewBox="0 0 29 24" fill="none" xmlns="http://www.w3.org/2000/svg">
<path d="M29 11.977C29 12.2218 28.9025 12.4566 28.7289 12.6297C28.5553 12.8028 28.3199 12.9001 28.0744 12.9001H3.15997L12.6855 22.4016C12.7764 22.4861 12.8494 22.588 12.9 22.7012C12.9505 22.8145 12.9777 22.9367 12.9799 23.0606C12.9821 23.1846 12.9593 23.3077 12.9127 23.4226C12.8662 23.5376 12.7969 23.642 12.709 23.7296C12.6211 23.8173 12.5164 23.8864 12.4012 23.9328C12.2859 23.9792 12.1625 24.002 12.0382 23.9999C11.9139 23.9977 11.7914 23.9705 11.6778 23.9201C11.5643 23.8696 11.4621 23.7969 11.3774 23.7062L0.270682 12.6293C0.0973556 12.4562 0 12.2216 0 11.977C0 11.7324 0.0973556 11.4977 0.270682 11.3247L11.3774 0.247743C11.5528 0.0846912 11.7849 -0.00407553 12.0247 0.000143812C12.2645 0.00436316 12.4932 0.101239 12.6628 0.270363C12.8324 0.439487 12.9295 0.667653 12.9338 0.906793C12.938 1.14593 12.849 1.37737 12.6855 1.55236L3.15997 11.0539H28.0744C28.3199 11.0539 28.5553 11.1512 28.7289 11.3243C28.9025 11.4974 29 11.7322 29 11.977Z" fill="black"/>
</svg>
