<svg width="77" height="80" viewBox="0 0 77 80" fill="none" xmlns="http://www.w3.org/2000/svg">
<path d="M38.2971 69.4185C31.4323 69.4185 24.7216 67.3829 19.0137 63.569C13.3058 59.7551 8.85705 54.3342 6.22999 47.9919C3.60293 41.6496 2.91557 34.6708 4.25484 27.9378C5.5941 21.2049 8.89983 15.0203 13.754 10.1661C18.6082 5.31194 24.7928 2.00621 31.5257 0.666944C38.2587 -0.67232 45.2375 0.015039 51.5798 2.6421C57.9221 5.26916 63.3429 9.71793 67.1569 15.4258C70.9708 21.1337 73.0064 27.8444 73.0064 34.7093C73.0064 39.2673 72.1086 43.7808 70.3643 47.9919C68.62 52.203 66.0634 56.0294 62.8403 59.2524C59.6173 62.4755 55.7909 65.0321 51.5798 66.7764C47.3687 68.5207 42.8552 69.4185 38.2971 69.4185ZM38.2971 0.546565C31.5404 0.546565 24.9353 2.5502 19.3173 6.30409C13.6992 10.058 9.3205 15.3935 6.73484 21.636C4.14917 27.8785 3.4727 34.7475 4.79095 41.3744C6.10921 48.0014 9.36299 54.0886 14.1408 58.8663C18.9187 63.644 25.006 66.8976 31.6329 68.2157C38.2599 69.5337 45.1289 68.8571 51.3713 66.2712C57.6137 63.6854 62.9492 59.3065 66.7029 53.6883C70.4566 48.0702 72.4601 41.4651 72.4599 34.7083C72.4599 25.6478 68.8606 16.9584 62.4538 10.5516C56.0471 4.14485 47.3577 0.545577 38.2971 0.545577V0.546565Z" fill="#090814"/>
<path d="M44.5517 47.953H32.0434C31.7372 47.9562 31.4335 47.8986 31.1497 47.7836C30.8659 47.6686 30.6077 47.4985 30.3901 47.2831C30.1724 47.0677 29.9997 46.8113 29.8818 46.5287C29.7638 46.2461 29.7031 45.9429 29.7031 45.6367C29.7031 45.3305 29.7638 45.0274 29.8818 44.7448C29.9997 44.4622 30.1724 44.2057 30.3901 43.9903C30.6077 43.7749 30.8659 43.6048 31.1497 43.4898C31.4335 43.3749 31.7372 43.3173 32.0434 43.3204H44.5514C45.1616 43.3267 45.7446 43.5735 46.1739 44.0073C46.6031 44.441 46.8439 45.0265 46.8439 45.6367C46.8439 46.2469 46.6031 46.8325 46.1739 47.2662C45.7446 47.6999 45.1616 47.9467 44.5514 47.953H44.5517Z" fill="#D6D6E3"/>
<path d="M44.7207 79.9998H32.2128C31.5985 79.9998 31.0093 79.7557 30.5749 79.3213C30.1405 78.887 29.8965 78.2978 29.8965 77.6835C29.8965 77.0692 30.1405 76.48 30.5749 76.0456C31.0093 75.6112 31.5985 75.3672 32.2128 75.3672H44.7207C45.335 75.3672 45.9242 75.6112 46.3586 76.0456C46.793 76.48 47.037 77.0692 47.037 77.6835C47.037 78.2978 46.793 78.887 46.3586 79.3213C45.9242 79.7557 45.335 79.9998 44.7207 79.9998Z" fill="#6C63FF"/>
<path d="M74.4129 72.3176H2.41952C1.08398 72.3176 0.00246637 71.4918 0 70.4744V54.1244C0.00147982 53.107 1.08398 52.2825 2.41952 52.2812H74.4129C75.7485 52.2812 76.83 53.107 76.8324 54.1244V70.4747C76.8309 71.4921 75.7485 72.3163 74.4129 72.3176Z" fill="#D6D6E3"/>
<path d="M67.4169 71.0727H4.05037C2.71483 71.0727 1.63333 70.2469 1.63086 69.2295V55.3666C1.63234 54.3492 2.71483 53.5247 4.05037 53.5234H72.7803C74.1161 53.5234 75.1973 54.3492 75.1998 55.3666V65.144C75.1951 68.4169 71.7133 71.069 67.4169 71.0727Z" fill="white"/>
<path d="M45.5602 60.3808H16.624C16.4585 60.3808 16.2998 60.3151 16.1828 60.198C16.0657 60.081 16 59.9223 16 59.7568C16 59.5913 16.0657 59.4326 16.1828 59.3156C16.2998 59.1986 16.4585 59.1328 16.624 59.1328H45.5602C45.7257 59.1328 45.8844 59.1986 46.0014 59.3156C46.1185 59.4326 46.1842 59.5913 46.1842 59.7568C46.1842 59.9223 46.1185 60.081 46.0014 60.198C45.8844 60.3151 45.7257 60.3808 45.5602 60.3808Z" fill="#6C63FF"/>
<path d="M60.2082 62.9355H16.624C16.4585 62.9355 16.2998 62.8697 16.1828 62.7527C16.0657 62.6357 16 62.477 16 62.3115C16 62.146 16.0657 61.9873 16.1828 61.8703C16.2998 61.7532 16.4585 61.6875 16.624 61.6875H60.2082C60.3737 61.6875 60.5325 61.7532 60.6495 61.8703C60.7665 61.9873 60.8322 62.146 60.8322 62.3115C60.8322 62.477 60.7665 62.6357 60.6495 62.7527C60.5325 62.8697 60.3737 62.9355 60.2082 62.9355Z" fill="#E6E6E6"/>
<path d="M60.2082 65.8652H16.624C16.4585 65.8652 16.2998 65.7994 16.1828 65.6824C16.0657 65.5654 16 65.4067 16 65.2412C16 65.0757 16.0657 64.917 16.1828 64.7999C16.2998 64.6829 16.4585 64.6172 16.624 64.6172H60.2082C60.3737 64.6172 60.5325 64.6829 60.6495 64.7999C60.7665 64.917 60.8322 65.0757 60.8322 65.2412C60.8322 65.4067 60.7665 65.5654 60.6495 65.6824C60.5325 65.7994 60.3737 65.8652 60.2082 65.8652Z" fill="#E6E6E6"/>
<path d="M48.8875 28.8374C48.8854 31.2843 48.0352 33.6548 46.4816 35.5452C44.9279 37.4356 42.767 38.7289 40.3669 39.2049C37.9667 39.681 35.4758 39.3102 33.3183 38.1558C31.1608 37.0014 29.4702 35.1348 28.5345 32.8739C27.5988 30.613 27.4758 28.0976 28.1865 25.7561C28.8971 23.4147 30.3975 21.3921 32.4321 20.0327C34.4666 18.6733 36.9095 18.0613 39.3447 18.3008C41.7798 18.5404 44.0566 19.6167 45.7873 21.3465C46.7707 22.3303 47.5506 23.4983 48.0826 24.7836C48.6145 26.0689 48.888 27.4464 48.8875 28.8374Z" fill="#6C63FF"/>
<path d="M38.5316 30.3719C40.5781 30.3719 42.2371 28.7129 42.2371 26.6664C42.2371 24.6199 40.5781 22.9609 38.5316 22.9609C36.4852 22.9609 34.8262 24.6199 34.8262 26.6664C34.8262 28.7129 36.4852 30.3719 38.5316 30.3719Z" fill="white"/>
<path d="M42.5035 31.6956H34.5617C34.0705 31.6961 33.5996 31.8915 33.2523 32.2389C32.905 32.5862 32.7096 33.0571 32.709 33.5483C32.8221 35.1352 33.07 36.7096 33.4501 38.2544C35.0426 39.0749 36.8174 39.4776 38.608 39.4248C40.3987 39.372 42.1467 38.8654 43.688 37.9525C44.0276 36.5046 44.2503 35.0317 44.354 33.548C44.3534 33.0568 44.1581 32.5859 43.8107 32.2385C43.4634 31.8912 42.9924 31.6958 42.5012 31.6953L42.5035 31.6956Z" fill="white"/>
</svg>
