<svg width="113" height="32" viewBox="0 0 113 32" fill="none" xmlns="http://www.w3.org/2000/svg">
<path d="M11.2433 0.768362H8.16046V15.4576C8.84049 16.4068 10.0192 17.1751 12.014 17.1751C15.5049 17.1751 17.0009 14.1017 17.0009 8.27119C17.0009 3.88701 14.9608 0.768362 11.2433 0.768362ZM10.6539 31.2768V31.6384H0V31.2768C0 29.9209 2.49347 30.7797 2.49347 24.9943V6.64407C2.49347 0.858757 0.589366 1.71751 0.589366 0.40678V0H12.3314C18.633 0.0451972 22.7586 3.20904 22.7586 8.63277C22.7586 13.9209 20.2198 18.1695 12.558 18.1695C10.4726 18.1695 9.11251 17.4463 8.16046 16.5424V24.9943C8.16046 30.7797 10.6539 29.9209 10.6539 31.2768Z" fill="#1A1A1A"/>
<path d="M29.8002 24.9943C29.8002 30.7345 32.2937 29.9661 32.2937 31.2768V31.6384H21.6397V31.2768C21.6397 29.9661 24.1332 30.7797 24.1332 24.9943V19.7062C24.1332 13.8757 22.2291 15.5932 22.2291 14.2825V13.9209C27.6241 13.9209 28.8028 11.435 28.8028 11.435C28.9388 11.1186 29.1655 10.9831 29.3468 10.9831C29.6188 10.9831 29.8002 11.1638 29.8002 11.4802V24.9943ZM26.944 9.58192C24.8586 9.58192 23.1811 7.9096 23.1811 5.83051C23.1811 3.75141 24.8586 2.0791 26.944 2.0791C29.0295 2.0791 30.7522 3.75141 30.7522 5.83051C30.7522 7.9096 29.0295 9.58192 26.944 9.58192Z" fill="#1A1A1A"/>
<path d="M51.3241 24.9943C51.3241 30.7345 53.7722 29.9661 53.7722 31.2768V31.6384H43.1636V31.2768C43.1636 29.9661 45.6118 30.7797 45.6118 24.9943V16.7232C45.6118 13.3785 45.0224 12.0226 42.4836 12.0226C41.1689 12.0226 40.0355 12.8362 39.3554 13.8305V24.9943C39.3554 30.7345 41.8489 29.9661 41.8489 31.2768V31.6384H31.195V31.2768C31.195 29.9661 33.6884 30.7797 33.6884 24.9943V20.565C33.6884 14.7345 31.7843 15.5932 31.7843 14.2825V13.9209C37.1793 13.9209 38.358 11.435 38.358 11.435C38.494 11.1186 38.7207 10.9831 38.9021 10.9831C39.1741 10.9831 39.3554 11.1638 39.3554 11.4802V12.5198C40.3982 11.2994 41.8942 10.6215 44.025 10.6215C50.3267 10.6215 51.3241 13.5593 51.3241 16.8136V24.9943Z" fill="#1A1A1A"/>
<path d="M63.0271 27.9322L63.4805 28.4746C62.8911 29.6497 61.7124 32 58.3122 32C55.9547 32 53.6426 30.7345 53.6879 25.3107V16.0904C53.6879 12.6554 53.2346 12.113 51.0585 12.113V11.2994C51.0585 11.0734 51.1945 10.9831 51.4211 10.9831H52.9172C57.0881 10.9831 58.3575 7.27684 58.3575 4.92655C58.3575 4.61017 58.6295 4.47458 58.9016 4.47458C59.1282 4.47458 59.4003 4.61017 59.4003 4.92655V10.9831H62.9818C63.0725 10.9831 63.1631 11.0734 63.1631 11.1638V11.9322C63.1631 12.0226 63.0725 12.113 62.9818 12.113H59.4003V24.9943C59.4003 27.887 60.307 29.0169 61.3044 29.0169C61.8937 29.0169 62.5284 28.6102 63.0271 27.9322Z" fill="#1A1A1A"/>
<path d="M79.3023 11.4802C81.2971 13.1073 80.1637 15.774 78.1689 15.774C77.5342 15.774 76.8089 15.5028 76.0835 14.8701C75.2221 14.1017 74.7688 13.5593 73.4994 13.5593C72.3206 13.5593 71.0966 14.8249 70.4619 18.2147V24.9943C70.4619 30.7797 72.9553 29.9661 72.9553 31.2768V31.6384H62.3014V31.2768C62.3014 29.9661 64.7949 30.7797 64.7949 24.9943V20.565C64.7949 14.7345 62.8908 15.5932 62.8908 14.2825V13.9209C68.2857 13.9209 69.4645 11.435 69.4645 11.435C69.6005 11.1186 69.8271 10.9831 70.0538 10.9831C70.2805 10.9831 70.4619 11.1638 70.4619 11.4802V15.548C71.4592 12.5198 73.4087 10.6215 76.0835 10.6215C77.4436 10.6215 78.577 10.8927 79.3023 11.4802Z" fill="#1A1A1A"/>
<path d="M87.1348 11.435C83.916 11.3898 83.2813 17.4011 83.5986 22.5989C88.3589 21.9661 89.8096 19.661 89.8096 16.6328C89.8096 13.6045 89.2656 11.435 87.1348 11.435ZM83.5986 23.2316C83.9613 27.0282 86.9081 29.1977 89.855 29.1977C91.8498 29.1977 93.8445 28.1582 95.0233 25.8983L95.4766 26.4859C94.3886 29.5593 92.2124 32 87.7242 32C81.4225 32 77.8863 28.4746 77.8863 21.2881C77.8863 13.1525 82.7372 10.6215 87.3162 10.6215C92.9378 10.6215 95.4766 13.1525 95.4766 16.5876C95.4766 22.3277 89.5376 23.0056 83.5986 23.2316Z" fill="#1A1A1A"/>
<path d="M104.658 11.435C101.439 11.3898 100.805 17.4011 101.122 22.5989C105.882 21.9661 107.333 19.661 107.333 16.6328C107.333 13.6045 106.789 11.435 104.658 11.435ZM101.122 23.2316C101.485 27.0282 104.432 29.1977 107.378 29.1977C109.373 29.1977 111.368 28.1582 112.547 25.8983L113 26.4859C111.912 29.5593 109.736 32 105.248 32C98.9459 32 95.4097 28.4746 95.4097 21.2881C95.4097 13.1525 100.261 10.6215 104.84 10.6215C110.461 10.6215 113 13.1525 113 16.5876C113 22.3277 107.061 23.0056 101.122 23.2316Z" fill="#1A1A1A"/>
</svg>
