<svg width="175" height="50" viewBox="0 0 175 50" fill="none" xmlns="http://www.w3.org/2000/svg">
<path d="M20 5C16.0444 5 12.1776 6.17298 8.8886 8.37061C5.59962 10.5682 3.03617 13.6918 1.52242 17.3463C0.00866569 21.0008 -0.387401 25.0222 0.384303 28.9018C1.15601 32.7814 3.06082 36.3451 5.85787 39.1421C8.65492 41.9392 12.2186 43.844 16.0982 44.6157C19.9778 45.3874 23.9991 44.9913 27.6537 43.4776C31.3082 41.9638 34.4318 39.4004 36.6294 36.1114C38.827 32.8224 40 28.9556 40 25C39.9944 19.6974 37.8855 14.6136 34.136 10.864C30.3864 7.11453 25.3026 5.0056 20 5ZM32.1808 22.6596L22.4885 25.8096L28.4788 34.0538C28.6043 34.2168 28.6957 34.4032 28.7479 34.6021C28.8 34.801 28.8117 35.0084 28.7824 35.2119C28.753 35.4154 28.6831 35.6109 28.5769 35.787C28.4707 35.9631 28.3302 36.116 28.1639 36.2369C27.9975 36.3577 27.8086 36.444 27.6083 36.4906C27.4081 36.5372 27.2005 36.5432 26.9979 36.5082C26.7952 36.4732 26.6017 36.3979 26.4286 36.2869C26.2556 36.1758 26.1066 36.0312 25.9904 35.8615L20 27.6173L14.0096 35.8615C13.7653 36.179 13.4067 36.3887 13.0101 36.4459C12.6136 36.5031 12.2104 36.4034 11.8862 36.1679C11.5621 35.9324 11.3426 35.5798 11.2744 35.185C11.2062 34.7902 11.2948 34.3844 11.5212 34.0538L17.5115 25.8096L7.81924 22.6596C7.4311 22.5336 7.10891 22.2586 6.92354 21.8951C6.73817 21.5316 6.7048 21.1093 6.83078 20.7212C6.95675 20.333 7.23176 20.0108 7.59529 19.8255C7.95882 19.6401 8.3811 19.6067 8.76924 19.7327L18.4615 22.8846V12.6923C18.4615 12.2843 18.6236 11.893 18.9121 11.6044C19.2007 11.3159 19.592 11.1538 20 11.1538C20.408 11.1538 20.7993 11.3159 21.0879 11.6044C21.3764 11.893 21.5385 12.2843 21.5385 12.6923V22.8846L31.2308 19.7346C31.423 19.6722 31.6255 19.6483 31.827 19.6642C32.0284 19.6802 32.2247 19.7356 32.4047 19.8274C32.5847 19.9192 32.7449 20.0455 32.8761 20.1992C33.0072 20.3529 33.1069 20.5309 33.1692 20.7231C33.2316 20.9153 33.2555 21.1178 33.2396 21.3193C33.2237 21.5207 33.1683 21.717 33.0765 21.897C32.9847 22.077 32.8583 22.2372 32.7047 22.3684C32.551 22.4995 32.373 22.5992 32.1808 22.6615V22.6596Z" fill="#1A1A1A"/>
<path d="M60.6 12C62.52 12 64.2133 12.3733 65.68 13.12C67.1467 13.84 68.28 14.88 69.08 16.24C69.88 17.5733 70.28 19.1333 70.28 20.92C70.28 22.7067 69.88 24.28 69.08 25.64C68.28 26.9733 67.1467 28.0133 65.68 28.76C64.2133 29.48 62.52 29.84 60.6 29.84H54.16V40H49.56V12H60.6ZM54.16 25.84H60.2C61.8533 25.84 63.16 25.4 64.12 24.52C65.1067 23.6133 65.6 22.4133 65.6 20.92C65.6 19.4 65.12 18.2 64.16 17.32C63.2 16.44 61.8933 16 60.24 16H54.16V25.84ZM75.5378 11.32C76.2845 11.32 76.9111 11.5733 77.4178 12.08C77.9245 12.56 78.1778 13.1733 78.1778 13.92C78.1778 14.6667 77.9245 15.2933 77.4178 15.8C76.9111 16.28 76.2845 16.52 75.5378 16.52C74.7911 16.52 74.1645 16.28 73.6578 15.8C73.1511 15.2933 72.8978 14.6667 72.8978 13.92C72.8978 13.1733 73.1511 12.56 73.6578 12.08C74.1645 11.5733 74.7911 11.32 75.5378 11.32ZM73.3778 19.52H77.6978V40H73.3778V19.52ZM92.7325 19.28C95.1592 19.28 97.1325 20.0267 98.6525 21.52C100.199 23.0133 100.973 25.4133 100.973 28.72V40H96.6125V28.96C96.6125 27.0133 96.1992 25.5333 95.3725 24.52C94.5458 23.5067 93.3325 23 91.7325 23C90.0258 23 88.6792 23.6 87.6925 24.8C86.7325 25.9733 86.2525 27.6 86.2525 29.68V40H81.9325V19.52H85.6925L86.1725 22.2C87.7192 20.2533 89.9058 19.28 92.7325 19.28ZM106.221 23.32H102.661V19.52H106.221V13.8H110.581V19.52H115.501V23.32H110.581V34C110.581 34.8 110.741 35.3733 111.061 35.72C111.381 36.04 111.928 36.2 112.701 36.2H115.981V40H111.821C109.875 40 108.448 39.5467 107.541 38.64C106.661 37.7333 106.221 36.3333 106.221 34.44V23.32ZM129.62 19.52V23.56H127.7C125.913 23.56 124.62 24.1467 123.82 25.32C123.02 26.4667 122.62 27.9333 122.62 29.72V40H118.3V19.52H122.14L122.62 22.6C123.206 21.64 123.966 20.8933 124.9 20.36C125.833 19.8 127.086 19.52 128.66 19.52H129.62ZM130.626 29.8C130.626 27.6933 131.039 25.8533 131.866 24.28C132.719 22.68 133.892 21.4533 135.386 20.6C136.906 19.72 138.639 19.28 140.586 19.28C142.559 19.28 144.292 19.68 145.786 20.48C147.306 21.28 148.492 22.4133 149.346 23.88C150.226 25.3467 150.679 27.0667 150.706 29.04C150.706 29.5733 150.666 30.12 150.586 30.68H135.146V30.92C135.252 32.7067 135.812 34.12 136.826 35.16C137.839 36.2 139.186 36.72 140.866 36.72C142.199 36.72 143.319 36.4133 144.226 35.8C145.132 35.16 145.732 34.2667 146.026 33.12H150.346C149.972 35.2 148.959 36.9067 147.306 38.24C145.679 39.5733 143.639 40.24 141.186 40.24C139.052 40.24 137.186 39.8133 135.586 38.96C134.012 38.08 132.786 36.8533 131.906 35.28C131.052 33.7067 130.626 31.88 130.626 29.8ZM146.306 27.52C146.119 26.0267 145.519 24.8667 144.506 24.04C143.519 23.1867 142.266 22.76 140.746 22.76C139.332 22.76 138.106 23.2 137.066 24.08C136.052 24.9333 135.466 26.08 135.306 27.52H146.306ZM153.438 29.8C153.438 27.6933 153.851 25.8533 154.678 24.28C155.531 22.68 156.705 21.4533 158.198 20.6C159.718 19.72 161.451 19.28 163.398 19.28C165.371 19.28 167.105 19.68 168.598 20.48C170.118 21.28 171.305 22.4133 172.158 23.88C173.038 25.3467 173.491 27.0667 173.518 29.04C173.518 29.5733 173.478 30.12 173.398 30.68H157.958V30.92C158.065 32.7067 158.625 34.12 159.638 35.16C160.651 36.2 161.998 36.72 163.678 36.72C165.011 36.72 166.131 36.4133 167.038 35.8C167.945 35.16 168.545 34.2667 168.838 33.12H173.158C172.785 35.2 171.771 36.9067 170.118 38.24C168.491 39.5733 166.451 40.24 163.998 40.24C161.865 40.24 159.998 39.8133 158.398 38.96C156.825 38.08 155.598 36.8533 154.718 35.28C153.865 33.7067 153.438 31.88 153.438 29.8ZM169.118 27.52C168.931 26.0267 168.331 24.8667 167.318 24.04C166.331 23.1867 165.078 22.76 163.558 22.76C162.145 22.76 160.918 23.2 159.878 24.08C158.865 24.9333 158.278 26.08 158.118 27.52H169.118Z" fill="#1A1A1A"/>
</svg>
