<svg width="65" height="80" viewBox="0 0 65 80" fill="none" xmlns="http://www.w3.org/2000/svg">
<path d="M32.2752 68.0312C31.2211 68.0279 30.1716 67.8923 29.1513 67.6277L28.9495 67.572L28.7629 67.4784C22.0185 64.0968 16.3285 59.6303 11.8512 54.2027C8.14479 49.6835 5.25512 44.5524 3.31208 39.0401C0.988539 32.4405 -0.129314 25.4769 0.0118859 18.4817C0.0146598 18.3349 0.0171806 18.2214 0.0171806 18.1432C0.0171806 14.7429 1.9047 11.7592 4.82587 10.542C7.06164 9.61045 27.3603 1.27285 28.827 0.670406C31.589 -0.71352 34.5357 0.441685 35.0072 0.643675C36.0648 1.07615 54.8298 8.7513 58.885 10.6822C63.0643 12.6723 64.1791 16.2474 64.1791 18.0457C64.1791 26.1888 62.7687 33.7994 59.9873 40.6656C57.7409 46.2235 54.5572 51.3545 50.5746 55.8351C42.8909 64.4821 35.2049 67.5475 35.1308 67.5745C34.2122 67.8906 33.2458 68.045 32.2744 68.0307L32.2752 68.0312ZM30.4676 63.5541C31.1339 63.7034 32.6681 63.9276 33.6679 63.5629C34.9381 63.0997 41.3711 59.7639 47.3826 52.9989C55.6885 43.6511 59.902 31.9021 59.9088 18.0759C59.894 17.7957 59.695 15.798 57.0494 14.5382C53.0729 12.6446 33.5683 4.66912 33.3719 4.58893L33.3179 4.56598C32.9091 4.39475 31.6084 4.03389 30.7117 4.50369L30.5322 4.58741C30.3148 4.67668 8.76734 13.5267 6.46929 14.4842C4.86168 15.154 4.289 16.8133 4.289 18.143C4.289 18.2401 4.28647 18.3815 4.28294 18.5641C4.09911 28.0246 6.28823 51.3038 30.4676 63.5538V63.5541Z" fill="#3F3D56"/>
<path d="M29.6692 2.55282C29.6692 2.55282 7.92605 11.4833 5.59622 12.4541C3.26639 13.425 2.10185 15.7543 2.10185 18.0842C2.10185 20.414 0.354547 50.8125 29.6692 65.5102C29.6692 65.5102 32.3299 66.2462 34.3483 65.5102C36.3667 64.7741 61.9928 52.348 61.9928 17.9868C61.9928 17.9868 61.9928 14.4925 57.9159 12.551C53.839 10.6095 34.1281 2.55307 34.1281 2.55307C34.1281 2.55307 31.7078 1.48461 29.6692 2.55282Z" fill="#6C63FF"/>
<path opacity="0.1" d="M32.0511 9.60156V57.2406C32.0511 57.2406 10.1137 46.6809 10.3079 18.9194L32.0511 9.60156Z" fill="black"/>
<path d="M29.2222 45.4628C28.5431 45.464 27.882 45.2444 27.3387 44.8371L27.3049 44.8119L20.2115 39.3811C19.8722 39.1334 19.5859 38.8204 19.3693 38.4604C19.1527 38.1005 19.0102 37.7009 18.9502 37.2851C18.8903 36.8693 18.914 36.4457 19.0201 36.0393C19.1262 35.6328 19.3124 35.2516 19.5679 34.9182C19.8234 34.5847 20.1429 34.3056 20.5078 34.0974C20.8727 33.8892 21.2755 33.7561 21.6925 33.7057C22.1096 33.6554 22.5325 33.6889 22.9364 33.8044C23.3403 33.9198 23.7171 34.1148 24.0445 34.378L28.6391 37.9011L39.4967 23.7413C40.0054 23.0782 40.7566 22.6443 41.5851 22.5349C42.4136 22.4256 43.2517 22.6497 43.915 23.158L43.8475 23.2498L43.9168 23.1595C44.5792 23.6687 45.0127 24.4198 45.122 25.2481C45.2314 26.0764 45.0077 26.9143 44.5001 27.5779L31.729 44.2332C31.4337 44.617 31.0539 44.9276 30.6191 45.1409C30.1843 45.3541 29.7062 45.4644 29.2219 45.463L29.2222 45.4628Z" fill="white"/>
<path d="M36.3767 73.1875H26.2898C24.6185 73.1875 23.2637 74.5423 23.2637 76.2136C23.2637 77.8848 24.6185 79.2397 26.2898 79.2397H36.3767C38.0479 79.2397 39.4028 77.8848 39.4028 76.2136C39.4028 74.5423 38.0479 73.1875 36.3767 73.1875Z" fill="#E6E6E6"/>
<path d="M37.512 80.0005C39.5314 80.0005 41.1685 78.3634 41.1685 76.344C41.1685 74.3246 39.5314 72.6875 37.512 72.6875C35.4925 72.6875 33.8555 74.3246 33.8555 76.344C33.8555 78.3634 35.4925 80.0005 37.512 80.0005Z" fill="#6C63FF"/>
</svg>
