<svg width="64" height="64" viewBox="0 0 64 64" fill="none" xmlns="http://www.w3.org/2000/svg">
<circle cx="32" cy="32" r="32" fill="#1A1A1A"/>
<path d="M38.9077 34.1918L35.1427 32.3094C35.0315 32.2541 34.9077 32.2291 34.7837 32.237C34.6598 32.2448 34.5401 32.2852 34.4367 32.3541L32.5919 33.5835C31.6579 33.1054 30.898 32.3457 30.4199 31.4118L31.6506 29.5682C31.7195 29.4649 31.7599 29.3452 31.7678 29.2213C31.7756 29.0974 31.7506 28.9735 31.6953 28.8624L29.8128 25.0976C29.7543 24.9799 29.664 24.8808 29.5521 24.8116C29.4403 24.7423 29.3113 24.7057 29.1798 24.7059C27.994 24.7059 26.8568 25.1769 26.0183 26.0153C25.1799 26.8537 24.7088 27.9908 24.7088 29.1765C24.7119 31.8589 25.779 34.4305 27.6759 36.3273C29.5728 38.224 32.1447 39.291 34.8274 39.2941C36.0131 39.2941 37.1504 38.8231 37.9888 37.9847C38.8273 37.1463 39.2983 36.0092 39.2983 34.8235C39.2984 34.6923 39.2619 34.5637 39.1929 34.4521C39.1239 34.3405 39.0251 34.2504 38.9077 34.1918ZM34.8274 37.8824C32.5191 37.8796 30.3061 36.9614 28.6739 35.3294C27.0417 33.6973 26.1235 31.4846 26.1207 29.1765C26.1208 28.4382 26.3879 27.7249 26.8727 27.1681C27.3575 26.6114 28.0273 26.2487 28.7586 26.1471L30.2481 29.1259L29.0257 30.9588C28.9614 31.0555 28.922 31.1665 28.911 31.282C28.8999 31.3976 28.9175 31.5141 28.9621 31.6212C29.6113 33.1644 30.8391 34.3921 32.3824 35.0412C32.4896 35.0859 32.6061 35.1034 32.7216 35.0924C32.8371 35.0813 32.9482 35.0419 33.0449 34.9776L34.878 33.7553L37.857 35.2447C37.7554 35.9759 37.3927 36.6457 36.8359 37.1305C36.279 37.6152 35.5657 37.8823 34.8274 37.8824ZM32.0036 20C29.9231 19.9996 27.8783 20.5399 26.0697 21.568C24.2612 22.5962 22.7509 24.0768 21.6872 25.8645C20.6235 27.6523 20.0429 29.6859 20.0023 31.7658C19.9617 33.8456 20.4625 35.9003 21.4556 37.7282L20.0884 41.8306C19.9916 42.1208 19.9776 42.4322 20.0478 42.73C20.1181 43.0277 20.2699 43.3 20.4863 43.5163C20.7026 43.7326 20.9749 43.8844 21.2727 43.9547C21.5704 44.0249 21.8819 44.0109 22.1721 43.9141L26.2748 42.5471C27.8808 43.4185 29.6647 43.9118 31.4903 43.9892C33.3159 44.0667 35.135 43.7262 36.8091 42.9939C38.4831 42.2616 39.9679 41.1567 41.15 39.7635C42.3322 38.3704 43.1806 36.7256 43.6305 34.9548C44.0804 33.184 44.12 31.3338 43.7462 29.5454C43.3725 27.7569 42.5952 26.0774 41.4737 24.6349C40.3523 23.1925 38.9162 22.0251 37.275 21.2219C35.6338 20.4186 33.8308 20.0007 32.0036 20ZM32.0036 42.5882C30.1422 42.5887 28.3135 42.0985 26.7019 41.1671C26.5945 41.1053 26.4729 41.0725 26.349 41.0718C26.273 41.0722 26.1976 41.0845 26.1254 41.1082L21.7262 42.5741C21.6847 42.5879 21.6402 42.59 21.5977 42.5799C21.5552 42.5699 21.5163 42.5482 21.4854 42.5173C21.4545 42.4864 21.4328 42.4475 21.4227 42.405C21.4127 42.3624 21.4147 42.3179 21.4285 42.2765L22.8945 37.8824C22.9263 37.7874 22.9374 37.6868 22.9273 37.5872C22.9171 37.4876 22.8859 37.3913 22.8357 37.3047C21.6677 35.2872 21.1982 32.9406 21.5001 30.629C21.8019 28.3174 22.8583 26.1701 24.5053 24.5201C26.1523 22.8701 28.2978 21.8098 30.609 21.5035C32.9202 21.1973 35.2679 21.6623 37.2879 22.8264C39.3078 23.9905 40.887 25.7886 41.7806 27.9418C42.6742 30.095 42.8321 32.4829 42.2299 34.7349C41.6277 36.987 40.299 38.9775 38.45 40.3974C36.601 41.8174 34.335 42.5875 32.0036 42.5882Z" fill="white"/>
</svg>
